PathFileType	4	(X/Y/Z)	Patient4_TMGait_0pt7_01_left_15.trc.trc
DataRate	CameraRate	NumFrames	NumMarkers	Units	OrigDataRate	OrigDataStartFrame	OrigNumFrames
87.500000000000	87.500000000000	4	33	mm	87.500000000000	36	       141
Frame#	Time	Sacral			L.Shoulder			Chest			R.Shoulder			Neck			R.ASIS			L.ASIS			R.Thigh.Superior			R.Thigh.Lateral			R.Thigh.Inferior			R.Patella			L.Thigh.Superior			L.Thigh.Lateral			L.Thigh.Inferior			L.Patella			L.Shank.Superior			L.Shank.Lateral			L.Shank.Inferior			R.Shank.Superior			R.Shank.Lateral			R.Shank.Inferior			R.Heel			R.Midfoot.Superior			R.Midfoot.Lateral			R.Toe			L.Heel			L.Midfoot.Lateral			L.Midfoot.Superior			L.Toe			L.Elbow			L.Wrist			R.Elbow			R.Wrist			
		X1	Y1	Z1	X2	Y2	Z2	X3	Y3	Z3	X4	Y4	Z4	X5	Y5	Z5	X6	Y6	Z6	X7	Y7	Z7	X8	Y8	Z8	X9	Y9	Z9	X10	Y10	Z10	X11	Y11	Z11	X12	Y12	Z12	X13	Y13	Z13	X14	Y14	Z14	X15	Y15	Z15	X16	Y16	Z16	X17	Y17	Z17	X18	Y18	Z18	X19	Y19	Z19	X20	Y20	Z20	X21	Y21	Z21	X22	Y22	Z22	X23	Y23	Z23	X24	Y24	Z24	X25	Y25	Z25	X26	Y26	Z26	X27	Y27	Z27	X28	Y28	Z28	X29	Y29	Z29	X30	Y30	Z30	X31	Y31	Z31	X32	Y32	Z32	X33	Y33	Z33	

36	17.570000000000	839.534563389809	997.407971552654	483.739034628766	1012.527231723479	1419.296419448971	291.535676851523	1126.331322177343	1347.739743897438	444.218562500237	1060.753385299003	1430.079341977187	621.651825408042	1031.554990530811	1482.900248134621	445.745858623515	1067.566869648334	927.503920208927	589.281755269793	1046.098471502348	951.532322473997	315.444825579818	1086.939604276536	717.600338366593	566.439553637291	995.944421401833	615.356699117761	630.747147338567	1069.022063893663	550.638737953795	555.969041904343	1052.372272920169	444.983314689564	572.933962838233	1123.828215147849	765.420093323577	347.807874484118	1058.459687738171	637.116732290385	282.985414540015	1155.748991216872	573.773658513154	345.612744691899	1167.966252898755	503.525621404946	352.959044312883	1148.574611374932	428.280253464270	343.231096135487	1071.792795368342	305.543406572008	290.990368742785	1137.461658659771	199.569860555697	359.222367432699	977.498332405348	378.277098314622	578.437432338548	860.973755165578	329.354219425936	639.513775451959	850.981414929459	221.970109573473	585.878173802825	652.606887519527	132.385960817839	556.955790354972	826.860288034849	111.872129111505	602.070914763113	720.877023453686	92.527526717290	634.860741100520	910.604289771604	33.249966309056	636.280812168785	1024.826270615873	38.227981560161	402.255162700025	1096.081796421771	35.876666742451	318.615416053509	1178.177877779717	98.540255412088	342.710425204390	1306.313246038043	50.144018089522	310.444405375677	872.828398863258	1092.531065931069	206.718857647014	816.110211260790	840.675023348417	221.996702447787	1198.335147084678	1123.313181976209	735.362644782737	1342.769262873003	1293.328422671866	628.007346268428	
37	17.581428571429	839.704917023340	998.469821707943	480.406208550677	1013.061552489203	1420.661006047073	289.200532529529	1126.127762470618	1349.331245674905	442.487898369532	1059.486099892659	1431.590228576273	619.608309308211	1031.345622323203	1484.314032378516	443.484009336605	1067.181791998565	928.796375535345	586.943012927088	1046.987402639151	953.176862281651	313.145765731827	1092.037372184961	720.432934248992	564.335820320680	1004.209391817410	616.054801351123	629.018985920395	1079.892714006461	552.715922192263	554.898046618221	1064.733224330799	445.425216208281	573.089758093803	1123.218600540013	765.052465438332	345.118723337133	1056.034266863508	637.438671684173	281.148712930681	1152.386907161518	573.049075172508	344.036542958787	1163.787278264937	502.888142667843	351.875953927748	1143.861774562095	427.776889584973	342.090531018998	1066.117242600242	305.543382048499	290.220962148038	1130.671825776636	199.250137773630	358.879975982471	987.577451075701	379.835672437465	578.019490554518	868.439187317385	335.579424052948	637.744871691140	855.774346013762	227.901401276978	585.192481523308	654.931704178534	148.263756317963	554.315349410761	827.025930666646	116.108196463485	601.635775625781	719.534706323980	104.150097291643	632.957026488300	903.666162930220	32.197809482414	636.302373029923	1016.872808594041	38.172122492452	402.134451707342	1088.131290289995	35.890127500631	318.498372515962	1170.178310768239	98.582432795497	342.664528797302	1298.331374625863	50.401369913219	310.360278011334	878.454863518945	1091.308985434429	203.612240254012	827.890158517338	838.135774130101	218.782404893870	1188.417957289862	1120.224760039582	734.278311358496	1336.236411605819	1286.964435631449	626.483749973561	
38	17.592857142857	839.757035030984	999.539406238957	477.152402273590	1013.686310337846	1421.997319390094	286.914127513505	1125.879744261843	1350.882361993187	440.909626045150	1057.993408114720	1433.019907141079	617.662252878925	1031.024903608709	1485.682296575771	441.276920868495	1066.693804411834	930.022243403216	584.777365166058	1047.755482911127	954.682744852251	311.058786076487	1097.286872775358	723.606336864968	562.478505301250	1012.678158413838	617.123215520859	627.548754189000	1090.966573341716	555.309382917046	554.067881656735	1077.396696561049	446.514059292742	573.234955695132	1122.080393061256	764.397435445093	342.391990373731	1053.012867822569	637.673513132773	279.243637767144	1148.462516478782	572.208159600087	342.291681939811	1158.996017544153	502.148637619031	350.474221670906	1138.575207207017	427.219655549207	340.728868798803	1059.910619635123	305.395621778279	289.402855876081	1123.629850873500	198.913827944808	358.399709616070	998.203479982508	381.854681909878	577.546012237609	876.686286496696	342.149044034630	635.878499129146	861.475308152408	234.322557736634	584.323277860524	658.830139915363	164.625072867154	551.147989473290	828.141743364459	121.111393142043	600.960381873677	719.436218677713	116.557358873432	630.653808877660	897.449135780994	31.401421782214	636.363910489461	1008.895028784794	38.106019090720	402.057866725668	1080.132661610861	35.843784746535	318.402035973421	1162.166610385811	98.556784925150	342.579144592352	1290.338049323746	50.499660991181	310.255458831042	884.123812150728	1090.208530806194	200.384360600989	840.735754616139	835.670480279938	215.329124513034	1177.415175932947	1117.061547919227	733.448077285781	1329.920213076416	1279.271866944438	625.304119580333	
39	17.604285714286	839.660062377018	1000.577914623104	474.009593995206	1014.410893194430	1423.254644725672	284.691156275947	1125.596411292180	1352.328404243522	439.497603507527	1056.309760264257	1434.324744008773	615.829283762984	1030.614290615428	1486.970451403169	439.135410723918	1066.112151580237	931.154224021132	582.784112819606	1048.375452899029	956.037365996772	309.162245516880	1102.589985904536	727.101200354875	560.846613230729	1021.234415883424	618.582737174496	626.325556131013	1102.070633632974	558.431049210203	553.444516319711	1090.215848462899	448.255706224757	573.337461656615	1120.479607020184	763.555181750658	339.649423027370	1049.526861013711	637.867184407958	277.270695962904	1144.096695945409	571.309682313510	340.381628513099	1153.723257355835	501.351564557529	348.771457643333	1132.845242464596	426.634682454854	339.178426204929	1053.307106545478	305.148204416155	288.487278210604	1116.397443426973	198.572911741859	357.786881413126	1009.219999675810	384.329178639212	576.999467962826	885.589009991169	348.950733509175	633.932298428952	867.990798676918	241.126965796196	583.260332243162	664.203613668573	181.027453869645	547.532824262711	830.236777758362	126.850043422506	600.031363259834	720.637747080335	129.428677321481	627.991948374219	892.250015917671	31.088857554727	636.434239312130	1000.894660159941	38.044894820857	401.999836637230	1072.094788630528	35.751837425382	318.308540771692	1154.156821047788	98.467494530340	342.447578651175	1282.342257756748	50.438430070722	310.132852333605	889.838301106440	1089.179305818959	197.066082068791	854.560707233844	833.313438359225	211.648705794898	1165.416589565014	1113.868011195781	732.838733315787	1323.827829604413	1270.196139212926	624.513478541595	
